<svg xmlns="http://www.w3.org/2000/svg" width="2048" height="2048" viewBox="0 0 2048 2048" version="1.1">
    <path d="M 1020.500 95.597 C 931.524 98.949, 854.736 111.421, 774.410 135.569 C 693.796 159.802, 612.779 196.819, 540.528 242.429 C 453.693 297.247, 375.469 366.651, 310.526 446.500 C 199.391 583.142, 129.174 747.975, 109.034 919.500 C 103.627 965.550, 101.556 1026.994, 103.922 1071.179 C 117.517 1325.072, 234.820 1554.377, 432 1712.511 C 614.656 1858.998, 850.483 1928.183, 1089.500 1905.404 C 1129.302 1901.610, 1184.255 1892.966, 1222.589 1884.468 C 1314.717 1864.044, 1404.552 1827.681, 1484.744 1778.355 C 1505.358 1765.676, 1517.045 1757.846, 1542.500 1739.660 C 1596.932 1700.773, 1623.927 1678.179, 1664.750 1637.337 C 1689.903 1612.173, 1690.449 1611.358, 1685.483 1606.392 C 1682.242 1603.151, 1679.740 1603.826, 1674.604 1609.327 C 1637.034 1649.564, 1613.700 1671.231, 1578.500 1698.567 C 1451.395 1797.274, 1279.068 1868.434, 1115 1889.963 C 1071.135 1895.719, 1042.947 1897.430, 1004 1896.700 C 973.083 1896.120, 963.197 1895.473, 932.288 1892.001 C 781.165 1875.029, 633.631 1817.490, 509.111 1726.961 C 281.401 1561.411, 147.218 1296.084, 152.338 1021.500 C 152.960 988.161, 153.743 975.599, 157.073 945.500 C 172.594 805.213, 224.559 670.431, 306.860 557 C 333.339 520.506, 356.687 493.257, 390.466 459.425 C 418.137 431.712, 432.467 418.761, 459 397.490 C 552.955 322.167, 663.468 267.711, 782.500 238.083 C 894.641 210.170, 1010.263 204.910, 1124.712 222.514 C 1310.481 251.088, 1480.877 336.757, 1615.750 469.390 C 1631.084 484.469, 1633.216 487.263, 1631.136 489.550 C 1629.758 491.066, 1624.104 507.574, 1621.404 517.967 C 1612.957 550.477, 1614.318 588.290, 1625.096 620.500 C 1628.450 630.525, 1628.377 630.343, 1633.548 641.500 C 1647.147 670.842, 1671.347 698.773, 1698.509 716.477 C 1729.131 736.437, 1762.004 746.186, 1799 746.281 C 1820.210 746.335, 1834.080 744.339, 1854 738.365 C 1864.680 735.163, 1892.183 721.963, 1902.039 715.309 C 1937.773 691.185, 1964.856 653.559, 1976.399 612 C 1981.343 594.198, 1982.461 585.081, 1982.406 563 C 1982.351 540.788, 1981.580 534.133, 1977.029 516.526 C 1963.734 465.100, 1926.789 420.305, 1879 397.668 C 1851.642 384.709, 1827.712 379.417, 1797.500 379.643 C 1779.337 379.779, 1768.472 381.211, 1752.012 385.640 C 1743.562 387.913, 1729.189 392.562, 1724.936 394.396 C 1723.793 394.890, 1718.606 389.970, 1705.634 376.088 C 1656.239 323.227, 1595.037 272.980, 1532.125 233.636 C 1505.778 217.160, 1486.096 206.167, 1456 191.118 C 1346.147 136.191, 1228.301 104.697, 1104 97.049 C 1086.023 95.943, 1034.911 95.054, 1020.500 95.597 M 979.500 356.613 C 855.240 364.202, 738.195 405.093, 639.797 475.292 C 523.623 558.171, 438.181 674.535, 393.298 811 C 360.723 910.041, 350.171 999.363, 359.569 1096.500 C 369.559 1199.753, 402.555 1299.681, 455.492 1387 C 464.042 1401.104, 484.484 1431.132, 489.121 1436.400 C 493.442 1441.308, 496.616 1442.241, 499.429 1439.429 C 502.281 1436.576, 501.096 1433.432, 492.821 1421.899 C 461.930 1378.849, 437.950 1335.285, 418.016 1286 C 356.592 1134.136, 351.716 961.864, 404.755 817.500 C 414.201 791.789, 424.864 768.357, 444.799 729.500 C 456.928 705.857, 478.974 672.180, 501.095 643.500 C 583.755 536.335, 699.704 456.242, 827.574 417.979 C 952.667 380.547, 1085.573 382.568, 1205.494 423.725 C 1278.960 448.939, 1340.351 483.664, 1401.500 534.593 C 1416.554 547.131, 1453.548 583.704, 1466.649 599 C 1523.385 665.240, 1564.797 740.162, 1589.357 821 C 1644.989 1004.110, 1615.635 1201.329, 1508.464 1364.500 C 1497.251 1381.572, 1475.486 1410.699, 1463.046 1425.280 L 1453.850 1436.059 1446.175 1429.571 C 1421.297 1408.540, 1393.228 1395.500, 1358.500 1388.842 C 1353.890 1387.958, 1343.819 1387.512, 1329 1387.535 C 1308.322 1387.567, 1305.470 1387.791, 1293.784 1390.306 C 1242.711 1401.295, 1199.319 1432.490, 1174.116 1476.337 C 1169.557 1484.270, 1168.390 1486.579, 1164.186 1496 C 1149.660 1528.552, 1145.978 1571.594, 1154.556 1608.586 C 1163.259 1646.117, 1187.875 1684.341, 1219 1708.653 C 1256.769 1738.155, 1306.815 1751.574, 1354.329 1744.939 C 1409.636 1737.215, 1459.322 1703.403, 1486.502 1654.993 C 1507.082 1618.339, 1514.700 1572.085, 1506.591 1533.025 L 1505.246 1526.550 1511.413 1520.025 C 1582.911 1444.369, 1636.336 1351.374, 1666.418 1250.212 C 1680.944 1201.361, 1690.198 1149.667, 1693.935 1096.500 C 1695.117 1079.682, 1694.524 1011.029, 1693.063 995.500 C 1687.418 935.526, 1676.812 883.652, 1659.532 831.500 C 1603.129 661.278, 1486.010 520.664, 1330.247 436.154 C 1251.902 393.648, 1166.629 367.783, 1074 358.430 C 1059.327 356.948, 994.439 355.701, 979.500 356.613 M 980.206 618 C 904.339 623.299, 836.121 645.870, 777.116 685.196 C 772.927 687.987, 768.263 691.420, 766.750 692.823 C 763.834 695.528, 763.112 699.712, 765.200 701.800 C 767.844 704.444, 771.946 703.002, 782.725 695.642 C 829.764 663.520, 888.151 641.565, 949 633.118 C 1037.609 620.818, 1131.639 637.940, 1201.649 679.123 C 1288.433 730.175, 1353.750 815.121, 1381.480 913 C 1395.235 961.551, 1399.150 1016.226, 1392.435 1066 C 1377.044 1180.096, 1311.767 1278.315, 1212.713 1336.419 C 1190.150 1349.654, 1158.520 1363.518, 1133.881 1370.971 C 1040.067 1399.351, 939.758 1391.421, 850.500 1348.569 C 790.062 1319.553, 738.694 1276.655, 698.758 1221.846 C 690.209 1210.113, 675 1186.118, 675 1184.363 C 675 1183.844, 678.938 1182.828, 683.750 1182.105 C 729.126 1175.292, 771.636 1151.942, 800.462 1118 C 821.626 1093.079, 835.108 1066.606, 842.414 1035.625 C 845.992 1020.449, 846.500 1015.090, 846.500 992.500 C 846.500 966.305, 845.288 957.549, 838.591 935.375 C 832.200 914.213, 820.298 891.503, 806.163 873.500 C 793.449 857.306, 772.390 838.865, 753.745 827.596 C 745.974 822.899, 727.779 814, 725.948 814 C 725.412 814, 724.191 813.571, 723.236 813.047 C 717.241 809.757, 700.284 805.363, 680 801.843 C 671.088 800.296, 643.388 800.424, 631 802.069 C 563.500 811.031, 506.884 853.882, 479.148 917 C 466.177 946.518, 461.081 983.909, 465.482 1017.276 C 469.462 1047.452, 479.025 1073.092, 495.705 1098.316 C 522.006 1138.088, 562.262 1166.702, 608.501 1178.491 C 609.052 1178.632, 611.039 1182.516, 612.915 1187.123 C 618.600 1201.078, 632.353 1227.733, 640.897 1241.353 C 659.265 1270.638, 673.462 1288.452, 698.488 1313.621 C 734.921 1350.263, 774.155 1377.384, 821 1398.309 C 895.223 1431.465, 979.268 1442.141, 1062 1428.923 C 1156.894 1413.761, 1249.271 1363.404, 1311.462 1292.934 C 1369.243 1227.462, 1402.558 1155.048, 1414.256 1069.500 C 1417.184 1048.094, 1417.425 995.046, 1414.689 974.500 C 1404.926 901.189, 1379.981 839.003, 1337.672 782.500 C 1303.801 737.266, 1252.279 692.929, 1201.500 665.319 C 1156.510 640.857, 1105.108 625.251, 1050.709 619.539 C 1032.656 617.643, 996.590 616.856, 980.206 618" stroke="none" fill="#6466f1" fill-rule="evenodd"/>
</svg>